HIERARCHY
ROOT Hips
{
	OFFSET -0.001795 -0.223333 0.028219
	CHANNELS 6 Xposition Yposition Zposition Zrotation Yrotation Xrotation 
	JOINT LeftUpLeg
	{
		OFFSET 0.069520 -0.091406 -0.006815
		CHANNELS 3 Zrotation Yrotation Xrotation
		JOINT LeftLeg
		{
			OFFSET 0.034277 -0.375199 -0.004496
			CHANNELS 3 Zrotation Yrotation Xrotation
			JOINT LeftFoot
			{
				OFFSET -0.013596 -0.397961 -0.043693
				CHANNELS 3 Zrotation Yrotation Xrotation
				JOINT LeftToe
				{
					OFFSET 0.026358 -0.055791 0.119288
					CHANNELS 3 Zrotation Yrotation Xrotation
					End Site
					{
						OFFSET 0.000000 0.000000 0.000000
					}
				}
			}
		}
	}
	JOINT RightUpLeg
	{
		OFFSET -0.067670 -0.090522 -0.004320
		CHANNELS 3 Zrotation Yrotation Xrotation
		JOINT RightLeg
		{
			OFFSET -0.038290 -0.382569 -0.008850
			CHANNELS 3 Zrotation Yrotation Xrotation
			JOINT RightFoot
			{
				OFFSET 0.015774 -0.398415 -0.042312
				CHANNELS 3 Zrotation Yrotation Xrotation
				JOINT RightToe
				{
					OFFSET -0.025372 -0.048144 0.123348
					CHANNELS 3 Zrotation Yrotation Xrotation
					End Site
					{
						OFFSET 0.000000 0.000000 0.000000
					}
				}
			}
		}
	}
	JOINT Spine
	{
		OFFSET -0.002533 0.108963 -0.026696
		CHANNELS 3 Zrotation Yrotation Xrotation
		JOINT Spine1
		{
			OFFSET 0.005487 0.135180 0.001092
			CHANNELS 3 Zrotation Yrotation Xrotation
			JOINT Spine2
			{
				OFFSET 0.001457 0.052922 0.025425
				CHANNELS 3 Zrotation Yrotation Xrotation
				JOINT Neck
				{
					OFFSET -0.002778 0.213870 -0.042857
					CHANNELS 3 Zrotation Yrotation Xrotation
					JOINT Head
					{
						OFFSET 0.005152 0.064970 0.051349
						CHANNELS 3 Zrotation Yrotation Xrotation
						End Site
						{
							OFFSET 0.000000 0.000000 0.000000
						}
					}
				}
				JOINT LeftShoulder
				{
					OFFSET 0.078845 0.121749 -0.034090
					CHANNELS 3 Zrotation Yrotation Xrotation
					JOINT LeftArm
					{
						OFFSET 0.090977 0.030469 -0.008868
						CHANNELS 3 Zrotation Yrotation Xrotation
						JOINT LeftForeArm
						{
							OFFSET 0.259612 -0.012772 -0.027456
							CHANNELS 3 Zrotation Yrotation Xrotation
							JOINT LeftHand
							{
								OFFSET 0.249234 0.008986 -0.001171
								CHANNELS 3 Zrotation Yrotation Xrotation
								End Site
								{
									OFFSET 0.000000 0.000000 0.000000
								}
							}
						}
					}
				}
				JOINT RightShoulder
				{
					OFFSET -0.081759 0.118833 -0.038615
					CHANNELS 3 Zrotation Yrotation Xrotation
					JOINT RightArm
					{
						OFFSET -0.096012 0.032551 -0.009143
						CHANNELS 3 Zrotation Yrotation Xrotation
						JOINT RightForeArm
						{
							OFFSET -0.253742 -0.013329 -0.021401
							CHANNELS 3 Zrotation Yrotation Xrotation
							JOINT RightHand
							{
								OFFSET -0.255298 0.007772 -0.005559
								CHANNELS 3 Zrotation Yrotation Xrotation
								End Site
								{
									OFFSET 0.000000 0.000000 0.000000
								}
							}
						}
					}
				}
			}
		}
	}
}
MOTION
Frames: 14
Frame Time: 0.050000
-0.040701 0.952659 -0.027044 -5.138497 11.870928 16.848333 6.177830 -1.340740 -18.133858 8.481205 0.133260 -8.826090 -10.524889 -9.023811 16.491574 0.000000 0.000000 0.000000 2.127455 0.640061 -6.003201 0.631968 -0.790937 -14.945880 -10.273592 -22.215639 18.327423 0.000000 0.000000 0.000000 -4.512881 0.288701 1.730533 -11.239022 4.635751 -1.827812 14.152935 23.848667 2.755039 1.594444 2.456660 -16.024104 0.000000 0.000000 0.000000 -8.942901 -8.768238 -1.085753 -52.584974 -26.713895 5.280725 -35.401084 -60.677935 15.540265 0.000000 0.000000 0.000000 -4.063789 32.164071 13.247679 0.171689 58.280723 0.416652 -5.948520 1.562691 0.001277 0.000000 0.000000 0.000000 
-0.040004 0.951981 -0.025861 -5.103677 12.579221 17.020642 6.065173 -1.411808 -18.739272 8.404296 0.115843 -8.594221 -10.360523 -8.903680 16.129253 0.000000 0.000000 0.000000 2.325906 0.662670 -6.181169 -0.032298 -0.785965 -14.632436 -10.248767 -22.191082 17.684250 0.000000 0.000000 0.000000 -4.451637 0.290362 0.824175 -11.136063 4.615447 -1.043651 14.235449 23.252877 2.309490 1.360007 2.636626 -16.584094 0.000000 0.000000 0.000000 -8.271028 -8.118356 -1.010943 -52.581737 -26.675062 5.146823 -36.030737 -61.136274 16.143353 0.000000 0.000000 0.000000 -3.797942 32.009166 13.269144 5.065845 58.429409 2.766409 -8.243368 3.802194 -0.104891 0.000000 0.000000 0.000000 
-0.038914 0.950973 -0.024269 -5.136527 12.986365 16.687862 5.733621 -1.399967 -18.140829 8.749701 0.158012 -9.153929 -10.356047 -9.013504 15.825397 0.000000 0.000000 0.000000 2.468830 0.637944 -5.935400 -0.601815 -0.757839 -14.143670 -9.794919 -21.410691 17.423727 0.000000 0.000000 0.000000 -4.492854 0.288070 0.428139 -10.746485 4.473599 -0.725279 14.215779 22.755864 2.229808 0.621001 2.921422 -16.066730 0.000000 0.000000 0.000000 -8.835597 -6.998045 -1.557150 -51.794464 -25.435169 4.673558 -40.442157 -61.991446 19.211291 0.000000 0.000000 0.000000 -2.738064 31.100425 13.271917 11.978751 57.941068 5.968005 -10.992829 8.863724 -0.475904 0.000000 0.000000 0.000000 
-0.037488 0.949891 -0.022357 -5.412114 13.878795 16.458429 5.586274 -1.422029 -18.015581 8.954421 0.167797 -9.323481 -10.179114 -8.779699 15.518278 0.000000 0.000000 0.000000 3.051472 0.626164 -5.799647 -0.941890 -0.723409 -13.593387 -9.954524 -21.781797 16.175458 0.000000 0.000000 0.000000 -4.080555 0.254597 0.076725 -10.547111 4.380531 -0.945680 14.340544 22.086313 2.672305 0.429832 3.144466 -16.702764 0.000000 0.000000 0.000000 -7.878471 -5.682453 -1.647125 -52.486168 -24.120077 3.895033 -49.811302 -64.249361 26.058187 0.000000 0.000000 0.000000 -2.233977 28.974381 12.470195 22.411423 55.101621 10.285217 -14.879341 17.847886 -1.408547 0.000000 0.000000 0.000000 
-0.035667 0.949110 -0.020115 -5.495457 14.512375 16.286417 5.226663 -1.435756 -17.717286 9.266813 0.199694 -9.764161 -10.314972 -8.730273 15.746127 0.000000 0.000000 0.000000 3.090516 0.618036 -5.685112 -1.493664 -0.680561 -13.037866 -9.991837 -21.801394 16.024257 0.000000 0.000000 0.000000 -3.888307 0.239695 -0.344460 -9.667579 4.020484 -1.090037 13.953877 21.290539 3.148759 0.058493 3.381012 -16.880707 0.000000 0.000000 0.000000 -8.638809 -3.866275 -2.539801 -51.649343 -22.157886 3.099859 -62.034579 -65.879478 35.585235 0.000000 0.000000 0.000000 -0.847773 26.217720 11.725254 32.587496 50.504897 13.184669 -19.014160 30.123567 -3.001013 0.000000 0.000000 0.000000 
-0.033421 0.948357 -0.017700 -5.431549 14.862084 16.175480 4.964478 -1.454794 -17.646464 9.271508 0.196074 -9.775604 -10.158788 -7.881886 16.467687 0.000000 0.000000 0.000000 2.572768 0.648506 -5.900500 -1.116159 -0.626317 -12.318145 -10.136306 -22.038973 15.825870 0.000000 0.000000 0.000000 -3.478390 0.218153 -1.363172 -9.185969 3.826889 -1.294224 13.822093 20.341729 4.126416 -0.248863 3.512718 -16.501806 0.000000 0.000000 0.000000 -7.815310 -1.583644 -2.953064 -52.292660 -20.068251 1.945875 -74.561085 -65.665919 44.863896 0.000000 0.000000 0.000000 0.522925 21.933936 10.184571 41.990409 43.845526 14.051816 -19.620375 47.418415 -4.046733 0.000000 0.000000 0.000000 
-0.030896 0.947356 -0.015272 -5.159290 15.625712 15.956440 4.507325 -1.473701 -17.347666 9.304581 0.197818 -9.847913 -10.643137 -8.523947 16.507648 0.000000 0.000000 0.000000 2.411316 0.630100 -5.685856 -1.536402 -0.584658 -11.849891 -10.323962 -22.311450 15.697547 0.000000 0.000000 0.000000 -2.941688 0.189990 -2.028002 -8.739587 3.646774 -1.448418 13.293530 19.190874 4.765193 -0.463071 3.541871 -15.853214 0.000000 0.000000 0.000000 -7.530763 0.089259 -3.364619 -51.965282 -18.251254 1.050583 -82.959122 -64.998119 51.101099 0.000000 0.000000 0.000000 1.531778 18.223293 8.755239 46.837302 36.766724 12.269367 -11.944911 63.866227 0.285816 0.000000 0.000000 0.000000 
-0.028657 0.946233 -0.013383 -4.581348 15.535428 15.698985 3.793481 -1.485797 -17.036332 9.100006 0.145744 -9.257508 -10.448627 -8.210620 16.444243 0.000000 0.000000 0.000000 1.218357 0.589707 -5.325925 -1.198965 -0.553441 -11.393306 -10.241783 -22.131972 15.800955 0.000000 0.000000 0.000000 -2.825555 0.185564 -2.917199 -8.175995 3.435640 -1.135760 12.886425 18.070178 5.197729 -0.769131 3.716998 -16.240226 0.000000 0.000000 0.000000 -6.246371 1.863329 -3.349279 -53.087623 -16.998745 0.194868 -86.231016 -63.946035 53.133918 0.000000 0.000000 0.000000 2.258897 16.020125 7.858121 48.545384 33.477040 11.011974 4.926886 72.958831 13.432810 0.000000 0.000000 0.000000 
-0.027152 0.945239 -0.012257 -4.263222 14.684108 14.892329 3.437673 -1.389615 -16.012415 8.968309 0.096235 -8.700363 -9.987887 -8.256901 15.411566 0.000000 0.000000 0.000000 0.635504 0.566668 -5.147011 -1.331161 -0.462792 -10.328006 -9.652246 -21.309945 14.884510 0.000000 0.000000 0.000000 -2.598430 0.176280 -3.159210 -8.240268 3.488925 -1.422193 12.965563 17.580574 5.766642 -0.697285 3.562212 -15.658300 0.000000 0.000000 0.000000 -5.424477 2.647135 -3.202102 -53.207162 -15.980240 -0.418886 -85.789537 -62.298549 51.511858 0.000000 0.000000 0.000000 2.512455 15.468217 7.565916 48.005595 33.534478 10.758247 12.196917 73.900167 19.014548 0.000000 0.000000 0.000000 
-0.026705 0.944723 -0.012271 -4.325069 13.382964 14.387394 3.591568 -1.309236 -15.504742 8.686511 0.038016 -7.998602 -8.853660 -7.215095 14.389447 0.000000 0.000000 0.000000 0.035891 0.541974 -4.947679 -1.056764 -0.455250 -10.154421 -8.581991 -19.514720 14.752358 0.000000 0.000000 0.000000 -2.188966 0.172827 -3.586924 -8.175374 3.487638 -1.578630 13.076210 17.535221 5.958045 -1.074584 3.674781 -15.325646 0.000000 0.000000 0.000000 -4.512055 3.321551 -3.009462 -53.553713 -15.211094 -0.907277 -81.727906 -60.950204 47.313276 0.000000 0.000000 0.000000 2.601194 16.565229 8.007721 47.258613 35.938060 11.622707 5.070626 68.958709 11.721739 0.000000 0.000000 0.000000 
-0.026930 0.944696 -0.012860 -4.192374 11.601779 13.709967 3.498920 -1.191072 -14.421967 8.505974 0.000047 -7.606858 -7.847835 -6.127488 13.793802 0.000000 0.000000 0.000000 -0.321646 0.542514 -5.014566 -1.291813 -0.381930 -9.289410 -7.849568 -18.413515 14.264227 0.000000 0.000000 0.000000 -1.856253 0.174479 -4.035634 -8.783733 3.789213 -0.966478 13.618598 17.860666 5.503089 -1.016676 3.515226 -15.008863 0.000000 0.000000 0.000000 -4.051674 3.424910 -2.790171 -53.807014 -14.832381 -1.067936 -77.274741 -59.412492 42.934451 0.000000 0.000000 0.000000 1.865289 18.144909 8.394680 47.893822 41.154678 14.612131 -1.446764 58.583938 4.929363 0.000000 0.000000 0.000000 
-0.027215 0.944575 -0.013707 -4.068646 10.311796 12.859876 3.589901 -1.069522 -13.225209 8.055208 -0.005911 -7.447432 -7.079231 -5.407757 13.114696 0.000000 0.000000 0.000000 -0.575058 0.521735 -4.839839 -1.371754 -0.330678 -8.612042 -7.313145 -17.588433 14.005525 0.000000 0.000000 0.000000 -1.620574 0.175101 -4.286107 -8.921576 3.893003 -0.644059 14.013894 18.119679 5.587703 -1.497246 3.546166 -13.395565 0.000000 0.000000 0.000000 -3.778070 3.871786 -2.789507 -54.089005 -14.185809 -1.423622 -74.925777 -57.004586 39.475528 0.000000 0.000000 0.000000 1.870796 19.009783 8.715474 48.522257 44.308763 16.537469 -1.446915 50.677563 3.509236 0.000000 0.000000 0.000000 
-0.026982 0.944803 -0.014083 -4.254726 9.541639 12.529094 3.856091 -0.997040 -12.551178 7.787678 0.032115 -7.799208 -6.803013 -5.060715 13.079818 0.000000 0.000000 0.000000 -0.558832 0.536342 -5.014455 -1.213894 -0.316298 -8.302810 -7.172266 -17.425928 13.744866 0.000000 0.000000 0.000000 -1.131147 0.184646 -5.013537 -8.988766 3.956994 -0.238526 14.188773 17.816081 5.574008 -1.538932 3.509514 -13.347283 0.000000 0.000000 0.000000 -3.837045 4.229526 -2.873137 -53.701691 -13.560058 -1.617808 -74.101351 -56.241024 38.623340 0.000000 0.000000 0.000000 1.415793 19.048626 8.496941 50.422091 44.214474 17.329781 0.062885 49.066971 3.878047 0.000000 0.000000 0.000000 
-0.026061 0.944612 -0.014024 -4.320347 9.593000 12.220868 4.056910 -0.960459 -12.168291 7.480819 0.038446 -7.768931 -6.511511 -4.826156 12.627746 0.000000 0.000000 0.000000 -0.911016 0.539952 -5.068478 -0.863192 -0.304883 -7.863692 -7.384215 -17.826134 13.345352 0.000000 0.000000 0.000000 -0.737324 0.191664 -5.504944 -8.943698 3.956822 0.133783 13.977639 17.103787 4.992430 -1.556456 3.353206 -12.627501 0.000000 0.000000 0.000000 -3.106407 4.672232 -2.697255 -53.899758 -13.105729 -1.860865 -76.902021 -55.231816 39.915460 0.000000 0.000000 0.000000 1.602500 16.857054 7.515309 51.790584 40.520832 15.790595 6.401084 53.655512 7.824717 0.000000 0.000000 0.000000 
